<?xml version="1.0" encoding="UTF-8" standalone="no"?>
<!-- Generator: Adobe Illustrator 16.0.0, SVG Export Plug-In . SVG Version: 6.00 Build 0)  -->

<svg
   version="1.1"
   id="Layer_1"
   x="0px"
   y="0px"
   width="612px"
   height="612px"
   viewBox="0 0 612 612"
   style="enable-background:new 0 0 612 612;"
   xml:space="preserve"
   sodipodi:docname="bass-guitar.svg"
   inkscape:version="1.1.1 (3bf5ae0d25, 2021-09-20)"
   xmlns:inkscape="http://www.inkscape.org/namespaces/inkscape"
   xmlns:sodipodi="http://sodipodi.sourceforge.net/DTD/sodipodi-0.dtd"
   xmlns="http://www.w3.org/2000/svg"
   xmlns:svg="http://www.w3.org/2000/svg"><defs
   id="defs934" /><sodipodi:namedview
   id="namedview932"
   pagecolor="#ffffff"
   bordercolor="#666666"
   borderopacity="1.0"
   inkscape:pageshadow="2"
   inkscape:pageopacity="0.0"
   inkscape:pagecheckerboard="0"
   showgrid="false"
   inkscape:zoom="1.375817"
   inkscape:cx="306"
   inkscape:cy="306.36342"
   inkscape:window-width="1920"
   inkscape:window-height="1027"
   inkscape:window-x="1912"
   inkscape:window-y="22"
   inkscape:window-maximized="1"
   inkscape:current-layer="Layer_1" />
<path
   d="M68.635,513.758l-16.047,16.047l-7.385-7.385l16.047-16.047L68.635,513.758z M70.965,516.073l-16.047,16.048l7.385,7.385  l16.047-16.047L70.965,516.073z M80.688,525.765L64.64,541.813l7.386,7.386l16.048-16.048L80.688,525.765z M74.366,551.555  l7.385,7.387l16.051-16.046l-7.385-7.387L74.366,551.555z M612,28.05c-0.021,10.689-6.912,19.605-17.149,22.186l-2.91,0.734  c-2.638,0.666-4.917,2.407-6.253,4.775l-34.084,60.421c-2.75,4.527-7.587,7.229-12.943,7.229c-2.336,0-4.601-0.512-6.735-1.52  c-2.865-1.354-6.066-2.069-9.255-2.069c-5.784,0-11.223,2.252-15.313,6.342l-8.001,8.001L238.443,400.651  c-3.314,7.421-2.811,13.382,1.526,17.718c6.215,6.217,17.009,5.694,33-1.598c0.631-0.273,1.498-0.689,2.749-1.315  c5.096-2.493,10.363-2.388,14.875,0.281c5.362,3.171,8.91,9.732,9.26,17.123c0.421,8.874-2.922,16.546-10.517,24.141  c-8.877,8.878-29.309,18.901-44.109,24.789c-14.553,5.796-25.327,18.304-28.818,33.457c-5.274,22.95-12.89,41.103-22.637,53.956  c-3.195,5.407-7.084,10.417-11.564,14.896C167.995,598.313,149.1,606.142,129,606.144c-0.002,0-0.009,0-0.012,0  C108.891,606.146,90,598.32,75.791,584.11l-53.747-53.749C7.828,516.146-0.001,497.246,0,477.144  c0.002-20.1,7.83-38.997,22.044-53.209c4.16-4.161,8.776-7.803,13.783-10.88l-0.221-0.207l6.89-3.46  c5.333-2.556,10.923-4.479,16.624-5.722l32.552-11.176c21.921-7.537,38.886-24.268,46.543-45.898  c10.112-28.591,23.34-48.16,40.437-59.823c0.269-0.183,0.788-0.584,1.522-1.144c32.149-24.478,54.388-29.959,66.105-16.292  c1.804,2.107,2.596,4.754,2.29,7.658c-1.052,9.994-16.042,22.718-32.083,34.979c-1.388,1.059-2.584,1.974-3.128,2.428  c-4.006,3.345-8.238,10.7-8.579,18.291c-0.227,5.037,1.25,9.183,4.387,12.32c2.751,2.751,6.523,4.188,11.26,4.294l248.65-241.79  c2.29-2.218,4.001-4.99,4.953-8.022l1.567-4.989c1.689-5.377,5.248-9.945,10.036-12.903l5.072-3.993l-4.282-5.928  c-1.689-2.338-1.164-5.603,1.175-7.292c2.337-1.688,5.604-1.164,7.291,1.175l4.03,5.58l15.746-12.393l-4.291-5.938  c-1.689-2.338-1.163-5.603,1.176-7.292c2.337-1.688,5.604-1.164,7.291,1.175l4.038,5.59l15.694-12.352l-4.537-6.281  c-1.689-2.338-1.163-5.603,1.174-7.292c2.341-1.688,5.603-1.164,7.292,1.175l4.285,5.932l15.731-12.381l-4.617-6.392  c-1.689-2.338-1.163-5.603,1.175-7.292c2.336-1.688,5.604-1.164,7.291,1.175l4.365,6.042l3.901-3.071  c4.473-3.697,9.771-5.69,15.229-5.69c1.901,0,3.811,0.243,5.678,0.721C605.559,9.141,612.019,17.569,612,28.05z M232.584,425.755  c-3.58-3.579-5.728-7.824-6.46-12.52l-10.534,10.761l-35.482-35.484l31.146-30.286c-3.623-1.229-6.818-3.179-9.47-5.83  c-5.224-5.225-7.795-12.2-7.437-20.176c0.434-9.666,5.385-20.051,12.319-25.84c0.717-0.598,1.875-1.484,3.479-2.71  c25.482-19.476,28-25.982,28.049-27.717c-7.257-8.062-26.069-1.524-51.688,17.983c-0.949,0.722-1.622,1.229-1.966,1.463  c-14.985,10.222-27.258,28.619-36.475,54.677c-8.727,24.653-28.043,43.714-52.997,52.295l-33.452,11.444  c-4.695,1.003-9.311,2.543-13.734,4.584l-0.949,0.464c-6.522,3.174-12.411,7.365-17.502,12.457  c-12.241,12.241-18.983,28.516-18.984,45.825c0,17.311,6.741,33.587,18.983,45.827l53.746,53.749  c12.237,12.235,28.507,18.975,45.814,18.975c0.002,0,0.005,0,0.008,0c17.311-0.003,33.583-6.744,45.825-18.985  c3.931-3.932,7.334-8.334,10.112-13.087l0.383-0.654l0.247-0.232c10.947-14.521,17.276-35.087,20.666-49.834  c4.259-18.495,17.394-33.754,35.133-40.82c17.713-7.046,34.404-16.284,40.587-22.47c5.514-5.514,7.748-10.376,7.47-16.261  c-0.184-3.858-1.81-7.244-4.145-8.626c-1.443-0.854-3.054-0.825-4.924,0.092c-1.427,0.713-2.408,1.182-3.143,1.499  C269.796,429.699,246.946,440.118,232.584,425.755z M601.555,28.029c0.008-4.412-2.249-9.707-8.604-11.333  c-4.044-1.037-8.133-0.014-11.761,2.981l-89.609,70.528l-0.29,0.172c-2.738,1.635-4.773,4.208-5.728,7.25l-1.568,4.989  c-1.473,4.685-4.116,8.967-7.643,12.386L194.982,388.615l20.528,20.528L491.93,126.8l8.04-8.041  c6.064-6.062,14.125-9.401,22.698-9.401c4.722,0,9.467,1.062,13.718,3.071c2.269,1.073,5.009,0.353,6.253-1.631l33.949-60.188  c2.735-4.85,7.401-8.411,12.8-9.772l2.911-0.734C599.117,38.388,601.545,32.526,601.555,28.029z M151.096,503.437l-34.667-34.667  l19.904-19.904L171,483.532L151.096,503.437z M151.095,488.664l5.131-5.132l-19.894-19.895l-5.131,5.132L151.095,488.664z   M157.836,465.242l-34.667-34.667l19.904-19.904l34.667,34.668L157.836,465.242z M157.835,450.47l5.131-5.131l-19.894-19.896  l-5.131,5.132L157.835,450.47z M184.433,545.078c0.914,8.087-4.922,15.412-13.01,16.329c-0.555,0.063-1.116,0.094-1.671,0.094  c0,0,0,0-0.001,0c-7.511-0.001-13.813-5.636-14.657-13.105c-0.442-3.917,0.666-7.774,3.124-10.858  c2.457-3.084,5.968-5.026,9.887-5.469c0.553-0.063,1.115-0.095,1.67-0.095C177.285,531.974,183.586,537.608,184.433,545.078z   M174.054,546.252c-0.247-2.185-2.086-3.832-4.279-3.832c-0.165,0-0.329,0.008-0.497,0.027c-1.146,0.129-2.173,0.697-2.891,1.6  c-0.719,0.901-1.043,2.03-0.913,3.175c0.247,2.186,2.085,3.834,4.277,3.834c0,0,0,0,0.001,0c0.163,0,0.329-0.008,0.495-0.027  C172.614,550.761,174.322,548.617,174.054,546.252z M160.042,571.396c0.914,8.089-4.922,15.414-13.011,16.329  c-0.554,0.063-1.115,0.094-1.67,0.094c0,0,0,0-0.001,0c-7.511,0-13.813-5.634-14.656-13.104c-0.442-3.917,0.666-7.774,3.123-10.858  c2.458-3.084,5.969-5.027,9.887-5.47c0.554-0.063,1.115-0.094,1.67-0.094C152.893,558.293,159.194,563.926,160.042,571.396z   M149.661,572.569c-0.247-2.185-2.086-3.832-4.278-3.832c-0.165,0-0.329,0.008-0.498,0.027c-1.145,0.129-2.173,0.697-2.891,1.6  c-0.719,0.902-1.043,2.03-0.913,3.175c0.247,2.187,2.085,3.834,4.277,3.834c0.165,0,0.331-0.008,0.498-0.027  C148.223,577.078,149.929,574.937,149.661,572.569z"
   id="path899"
   style="fill:#ffffff;fill-opacity:1" />
<g
   id="g901">
</g>
<g
   id="g903">
</g>
<g
   id="g905">
</g>
<g
   id="g907">
</g>
<g
   id="g909">
</g>
<g
   id="g911">
</g>
<g
   id="g913">
</g>
<g
   id="g915">
</g>
<g
   id="g917">
</g>
<g
   id="g919">
</g>
<g
   id="g921">
</g>
<g
   id="g923">
</g>
<g
   id="g925">
</g>
<g
   id="g927">
</g>
<g
   id="g929">
</g>
</svg>
