<?xml version="1.0" encoding="UTF-8" standalone="no"?>
<!-- Generator: Adobe Illustrator 18.0.0, SVG Export Plug-In . SVG Version: 6.00 Build 0)  -->

<svg
   version="1.1"
   id="Capa_1"
   x="0px"
   y="0px"
   viewBox="0 0 419.061 419.061"
   style="enable-background:new 0 0 419.061 419.061;"
   xml:space="preserve"
   sodipodi:docname="electric-guitar-svgrepo-com.svg"
   inkscape:version="1.1.1 (3bf5ae0d25, 2021-09-20)"
   xmlns:inkscape="http://www.inkscape.org/namespaces/inkscape"
   xmlns:sodipodi="http://sodipodi.sourceforge.net/DTD/sodipodi-0.dtd"
   xmlns="http://www.w3.org/2000/svg"
   xmlns:svg="http://www.w3.org/2000/svg"><defs
   id="defs97">
	
	
	
	
</defs><sodipodi:namedview
   id="namedview95"
   pagecolor="#ffffff"
   bordercolor="#666666"
   borderopacity="1.0"
   inkscape:pageshadow="2"
   inkscape:pageopacity="0.0"
   inkscape:pagecheckerboard="0"
   showgrid="false"
   inkscape:zoom="1.4142136"
   inkscape:cx="14.636658"
   inkscape:cy="170.84757"
   inkscape:window-width="1920"
   inkscape:window-height="1027"
   inkscape:window-x="1912"
   inkscape:window-y="22"
   inkscape:window-maximized="1"
   inkscape:current-layer="Capa_1" />
<path
   id="path54"
   d="m 406.05664,6.3164062 c -2.0334,0.083572 -4.07461,0.6765313 -5.95898,1.8007813 L 330.38867,49.71875 c -1.581,0.943 -2.7605,2.433453 -3.3125,4.189453 l -2.55859,8.144531 c -0.478,1.52 -1.33647,2.910532 -2.48047,4.019532 L 176.6875,206.87109 c -3.041,0.038 -5.39723,-0.72831 -6.99023,-2.32031 -4.061,-4.061 -3.1585,-7.34987 -2.6875,-8.42187 0.197,-0.313 9.28014,-15.27063 9.49414,-15.64063 0.77025,-1.33394 1.36562,-2.73122 2.04687,-4.09766 4.7e-4,-0.10416 8.5e-4,-0.20832 0.002,-0.3125 0.001,-0.16568 -3.6e-4,-0.33238 0.004,-0.49804 0.003,-0.19134 -0.002,-0.38101 -0.004,-0.57227 0.0307,-0.38131 7e-4,-0.0983 0.0293,-0.27343 0.005,-0.0315 0.006,-0.063 0.0137,-0.0938 0.003,-0.0106 0.0327,0.0138 0.0625,0.041 -0.0174,-0.0416 -0.0497,-0.0751 -0.0742,-0.11328 -0.0505,-0.14388 -0.11114,-0.28483 -0.15234,-0.43164 -0.0385,-0.13705 0.073,-0.30039 0.0469,-0.43945 0.0114,-0.007 0.0393,-0.009 0.0351,-0.0215 -0.0191,-0.068 -0.0712,-0.12245 -0.0937,-0.18945 -0.0824,-0.24593 -0.1121,-0.38371 -0.0976,-0.61524 0.005,-0.27912 -0.008,-0.55917 0.002,-0.83789 0.0379,-0.25256 0.0868,-0.49952 -0.0352,-0.73828 -0.0259,-0.13082 -0.0597,-0.2605 -0.0781,-0.39258 -0.0173,-0.12449 3.6e-4,-0.25132 -0.004,-0.37695 -0.004,-0.12644 -0.0194,-0.24011 -0.008,-0.36914 0.007,-0.0691 0.0288,-0.13718 0.043,-0.20508 0.001,-0.003 0.003,-0.008 0.004,-0.0117 -0.0424,-0.18296 -0.1177,-0.35922 -0.14062,-0.54687 -0.0529,-0.25418 -0.065,-0.29633 -0.10352,-0.58399 0,-0.004 0.007,0.006 0.01,0.008 0.002,-0.0155 0.004,-0.0314 0.006,-0.0469 -0.0258,-0.078 -0.0763,-0.14676 -0.0957,-0.22656 -0.0376,-0.15466 -0.0492,-0.31547 -0.0742,-0.47266 0.008,-0.0477 0.0488,-0.30718 0.0508,-0.30664 0.0393,0.0138 0.0456,0.1021 0.0859,0.0918 0.0942,-0.024 -0.33153,-0.25014 -0.15821,-0.24414 -0.0398,-0.0689 -0.0909,-0.13263 -0.11914,-0.20703 -0.0326,-0.0865 -0.019,-0.2492 -0.043,-0.39844 -0.0102,-0.007 -0.0198,-0.0155 -0.0293,-0.0234 -0.15887,-0.20368 -0.0557,-0.0558 -0.15235,-0.23047 -10e-4,-0.002 -0.009,-0.007 -0.008,-0.004 0.005,0.0117 0.0245,0.0325 0,0.0156 -0.0992,-0.1191 -0.17934,-0.22734 -0.19336,-0.38476 v -0.002 c 0.005,0.007 -0.005,-0.006 -0.0488,-0.0664 -0.0951,-0.14721 -0.12689,-0.32178 -0.21289,-0.47266 -0.1253,-0.41836 0.0213,0.12877 -0.0352,-0.2793 -0.005,-0.0368 -0.002,0.0756 -0.0117,0.11133 -0.003,0.009 -0.01,-0.0174 -0.0137,-0.0254 -0.0547,-0.10145 -0.0211,-0.0402 -0.0684,-0.125 -0.0223,-0.072 -0.0969,-0.25066 -0.0234,-0.32226 0.0541,-0.0527 0.10589,-0.0914 0.15625,-0.12305 -0.008,-0.0447 -0.007,-0.0778 0.0137,-0.082 0.084,-0.0177 0.13216,-0.0294 0.19141,-0.043 -0.007,-0.0123 -0.0127,-0.0249 -0.0195,-0.0371 -0.0958,-0.17101 -0.20557,-0.33326 -0.30859,-0.5 -0.22233,-0.36004 -0.23979,-0.66984 -0.14648,-0.88477 -0.083,-0.10564 -0.16628,-0.21096 -0.25,-0.3164 -0.11538,-0.15201 -0.21967,-0.31536 -0.36133,-0.44532 -0.0366,-0.0395 -0.0739,-0.0768 -0.10938,-0.11718 -0.0899,-0.10243 0.006,-0.0115 -0.10742,-0.13086 -0.0448,-0.0472 -0.10262,-0.0825 -0.14062,-0.13672 -0.01,-0.0104 -0.0164,-0.024 -0.0254,-0.0352 -0.10678,-0.11821 -0.23522,-0.21557 -0.32422,-0.34961 -0.0987,-0.1259 -0.19828,-0.25103 -0.29688,-0.37695 -0.0955,-0.1218 -0.19025,-0.24298 -0.28515,-0.36523 -0.0337,-0.0436 -0.0695,-0.0856 -0.10352,-0.12891 -0.0774,-0.10552 -0.15418,-0.21087 -0.23438,-0.31445 -0.0272,-0.0351 -0.0493,-0.0735 -0.0801,-0.10547 -0.0154,-0.016 -0.0381,-0.0249 -0.0566,-0.0371 -0.0267,-0.0235 -0.0549,-0.0452 -0.0801,-0.0703 -0.0143,-0.0142 -0.0246,-0.0312 -0.0371,-0.0469 -0.0752,-0.0942 -0.1511,-0.18861 -0.2207,-0.28711 -0.0556,-0.075 -0.10963,-0.1525 -0.17383,-0.2207 -0.21751,-0.23078 0.14173,0.17334 -0.15039,-0.15039 -0.0109,-0.0121 -0.0193,-0.0261 -0.0293,-0.0391 -0.10886,-0.12375 0.024,0.0217 -0.11133,-0.10547 -0.11826,-0.11116 -0.21038,-0.24383 -0.3125,-0.36914 -0.0659,-0.0823 -0.1284,-0.16681 -0.1875,-0.25391 -0.0116,-0.0124 -0.0223,-0.026 -0.0351,-0.0371 -0.0165,-0.0144 -0.0392,-0.0219 -0.0527,-0.0391 -0.0396,-0.0505 -0.0609,-0.11411 -0.10351,-0.16211 -0.0105,-0.0118 -4.4e-4,0.0343 0.0137,0.0606 -0.005,-0.001 -0.012,-0.003 -0.041,-0.0234 -0.0675,-0.0471 -0.12149,-0.0948 -0.15039,-0.17383 -0.001,-0.002 -0.003,-0.005 -0.004,-0.008 -0.004,-0.005 -0.009,-0.01 -0.0137,-0.0137 -0.109,-0.0847 -0.22424,-0.16188 -0.30664,-0.2754 -0.13653,-0.1476 -0.0921,-0.10373 -0.20898,-0.21874 -0.0258,-0.0254 -0.0482,-0.0536 -0.0781,-0.0742 -0.24749,-0.17066 0.13928,0.17783 -0.20508,-0.12696 -0.0124,-0.0109 -0.0183,-0.0273 -0.0273,-0.041 -0.0339,-0.049 -0.0679,-0.0974 -0.10156,-0.14649 -0.0128,-0.0185 -0.0215,-0.0405 -0.0371,-0.0566 -0.012,-0.0124 -0.0305,-0.0173 -0.0449,-0.0273 -0.0711,-0.0471 -0.0633,-0.0423 -0.125,-0.0898 -0.0265,-0.0231 -0.0523,-0.0465 -0.0781,-0.0703 -0.0166,-0.0154 -0.0291,-0.0348 -0.043,-0.0527 -0.0649,-0.0833 -0.13011,-0.1669 -0.19531,-0.25 -0.0655,-0.0832 -0.13761,-0.16246 -0.1914,-0.25391 -0.009,-0.005 -0.0186,-0.009 -0.0273,-0.0156 -0.0828,-0.0588 -0.0931,-0.0747 -0.16211,-0.14649 -0.01,-0.0111 -0.0196,-0.0221 -0.0293,-0.0332 -0.11734,-0.004 -0.11903,0.0112 -0.0684,0.0527 0.009,0.002 0.019,0.003 0.0273,0.008 0.004,0.002 -0.009,0.003 -0.0137,0.004 -0.006,-0.005 -0.008,-0.007 -0.0137,-0.0117 -0.006,-0.001 -0.0117,-0.004 -0.0176,-0.006 -0.009,-0.003 -0.0164,-0.008 -0.0254,-0.01 -0.0663,-0.0125 -0.12213,0.005 -0.17383,-0.0762 -0.0215,-0.0275 -0.0444,-0.0536 -0.0644,-0.082 -7.2e-4,-0.001 -0.007,-0.005 -0.008,-0.006 -2.45625,-1.97756 -5.32018,-3.3294 -8.37304,-3.94336 1.5e-4,-0.0143 -1.2e-4,-0.0362 0,-0.0508 -0.0226,-0.004 -0.0454,-0.0105 -0.0645,-0.0176 -0.005,-0.002 -0.01,-0.01 -0.0156,-0.0117 -0.0444,-0.0134 -0.0996,-0.005 -0.13477,-0.0352 -5.6e-4,-4.8e-4 -0.003,-0.007 -0.004,-0.008 -0.008,-0.004 -0.0151,-0.007 -0.0195,-0.0117 -0.0116,-0.0111 -0.0217,-0.0247 -0.0313,-0.0371 -0.0516,-6.9e-4 -0.0861,-0.0226 -0.14843,-0.0547 -0.002,-4.2e-4 -0.003,4.4e-4 -0.004,0 l -0.002,-0.002 h -0.002 c -0.003,-0.001 -0.007,-6.2e-4 -0.01,-0.002 -0.005,-0.001 -0.0104,-0.003 -0.0156,-0.004 -0.0149,-0.0106 -0.0258,-0.0165 -0.0391,-0.0254 -0.0142,-0.001 -0.0254,-0.003 -0.0508,-0.006 -0.0298,-0.0103 -0.0606,-0.0175 -0.0898,-0.0293 -0.0107,-0.004 -0.0368,-0.0112 -0.0332,-0.0176 -0.0744,-4e-5 -0.14822,-2.7e-4 -0.22265,0 -0.0339,0 -0.0927,0.001 -0.11328,0 -0.0551,0.002 -0.11112,0.009 -0.16602,0.004 -0.0257,-0.003 -0.0507,-0.008 -0.0762,-0.0117 -0.0596,0.0329 -0.12097,0.0639 -0.19141,0.0547 -0.046,-0.003 -0.0908,-0.01 -0.13672,-0.0137 -0.0111,-0.001 -0.0252,0.006 -0.0332,-0.002 -0.006,-0.006 0.0154,-0.0235 0.01,-0.0215 -0.0184,0.004 -0.031,0.0193 -0.0469,0.0293 -0.049,0.0164 -0.0991,0.0355 -0.14844,0.0508 -0.0461,0.0143 -0.13234,-0.0118 -0.18164,0 -0.0451,8e-5 -0.0916,-3.5e-4 -0.13672,-0.002 -0.0828,0.003 -0.16549,0.006 -0.24804,-0.002 -0.0395,0.0345 -0.0854,0.0516 -0.19531,0.0488 -0.0194,2.8e-4 -0.10692,0.004 -0.13672,0.002 -0.0291,-0.002 -0.0589,-0.009 -0.0879,-0.0117 -0.003,-8e-4 -0.007,-3e-4 -0.008,-0.002 h -0.002 c -0.11165,0.0278 -0.22468,0.0639 -0.33984,0.0391 -0.0786,-9e-4 0.009,-0.003 -0.11914,0.0293 -0.10048,0.0256 -0.19089,0.0343 -0.29297,0.0293 -0.12577,1.9e-4 -0.25119,-0.002 -0.37696,-0.002 -0.0531,4.2e-4 -0.0939,-0.005 -0.14453,-0.0117 -0.009,-0.001 -0.0157,-0.01 -0.0254,-0.0117 -0.002,-5e-5 -0.006,-5e-5 -0.008,0 -0.0172,4.5e-4 -0.034,-0.004 -0.0508,-0.008 -0.008,-0.001 -0.0115,-0.0157 -0.0195,-0.0137 -0.082,0.0201 -0.14037,0.1065 -0.26172,0.0625 0.005,-0.002 0.0206,-0.004 0.0156,-0.006 -0.006,-0.001 -0.0135,0.002 -0.0195,0.004 -0.0295,0.008 -0.0579,0.0194 -0.0879,0.0254 -0.12376,0.023 -0.11933,0.0187 -0.22265,0.0137 -0.0267,-0.001 -0.0534,-0.003 -0.0801,-0.004 -0.0753,0.024 -0.32612,0.12655 -0.38282,0.0937 -0.007,-0.004 3.9e-4,-0.0174 0.002,-0.0254 -0.12736,0.078 -0.20384,0.0912 -0.3418,0.0801 -0.005,0.003 -0.008,0.009 -0.0137,0.0117 -0.1025,0.0516 -0.19694,0.0348 -0.30078,0.0215 -0.003,1.3e-4 -0.01,-4.8e-4 -0.0117,0 -0.12119,0.0231 -0.2383,0.0618 -0.36133,0.0762 -0.0562,0.007 -0.11352,0.009 -0.16992,0.0137 -0.0123,-0.004 -0.0315,-0.01 -0.043,-0.01 -0.009,0.002 -0.0217,0.005 -0.0312,0.008 -0.11679,0.0292 -0.23606,0.11287 -0.35938,0.10547 -0.0207,0 -0.0346,5e-5 -0.0508,0 -0.0165,0.002 -0.0284,0.002 -0.0586,0.002 -0.0105,-5.2e-4 -0.0345,-0.004 -0.0508,-0.006 -0.0169,-5.7e-4 -0.0306,9.6e-4 -0.0527,0 -0.0106,-10e-4 -0.0189,-0.003 -0.0293,-0.004 -0.003,-3.9e-4 -0.007,1e-5 -0.0117,0 -0.0312,0.0133 -0.0574,0.0174 -0.1211,0.0312 0.01,-0.006 0.0357,-0.0265 0.0254,-0.0215 -0.18275,0.091 0.0324,0.0255 -0.23829,0.0859 -0.0445,-0.004 -0.14139,-0.0236 -0.18359,-0.0176 -0.0577,0.008 -0.1119,0.037 -0.16992,0.043 -0.19515,0.053 -0.3914,0.10672 -0.5918,0.13672 -0.0765,0.0136 -0.14881,0.0297 -0.22461,0.0469 -0.0172,0.004 -0.0367,0.002 -0.0527,0.01 -0.0259,0.0122 -0.0483,0.0313 -0.0723,0.0469 -0.0433,0.0199 -0.0875,0.0401 -0.13086,0.0605 -0.3037,0.0695 -0.60069,0.16459 -0.90429,0.23438 -0.0773,0.0122 -0.15282,0.0262 -0.22852,0.0449 -0.007,0.002 -0.0155,-0.001 -0.0215,0.002 -0.0216,0.0119 -0.0423,0.0288 -0.0625,0.043 -0.0336,0.016 -0.066,0.0327 -0.0996,0.0488 -0.10306,0.0285 -0.0933,0.029 -0.22071,0.041 -0.008,0 -0.0274,0.004 -0.0254,-0.004 0.004,-0.0148 0.0525,-0.032 0.0371,-0.0312 -0.0505,0.001 -0.0721,0.0997 -0.13476,0.0723 -0.18139,0.0561 -0.3711,0.0784 -0.54297,0.16602 -0.11498,0.0501 -0.22824,0.096 -0.35156,0.12109 -0.0406,0.008 -0.14141,0.0427 -0.19141,0.0254 -0.12919,0.0889 -0.27671,0.16892 -0.43555,0.16992 -0.14973,0.0723 -0.1,0.0585 -0.30859,0.0996 -0.006,10e-4 -0.0183,0.001 -0.0176,-0.006 0.001,-0.009 0.0266,-0.0199 0.0176,-0.0195 -0.0428,0.002 -0.0698,0.067 -0.11719,0.0527 -0.0248,0.009 -0.0928,0.0346 -0.11523,0.0449 -0.0227,0.0105 -0.0421,0.0292 -0.0664,0.0352 -0.0497,0.0117 -0.0996,0.0157 -0.15039,0.0215 0.0508,-0.0192 0.0633,-0.0231 0.0742,-0.0352 -0.12146,0.0382 -0.26281,0.032 -0.20899,0.0625 0.006,-0.009 0.0131,-0.0203 0.01,-0.0176 -0.0137,0.007 -0.0254,0.019 -0.0371,0.0293 -0.0119,-0.006 0.0369,-0.005 0.0293,-0.01 -0.003,0.005 -0.007,0.009 -0.004,0.0117 -0.004,0.001 -0.008,0.003 -0.0117,0.002 -0.006,-0.002 -0.01,-0.002 -0.0137,-0.004 h -0.002 l -0.004,-0.002 c -0.0155,0.0137 -0.0301,0.0273 -0.0488,0.0352 -0.19095,0.0829 -0.12324,0.0408 -0.23828,0.0488 -0.14892,0.0597 -0.29765,0.11556 -0.44922,0.16797 -0.0721,0.0198 -0.0899,0.0388 -0.15625,0.0801 -0.075,0.0466 -0.13417,0.0779 -0.20507,0.0977 -0.0606,0.0674 -0.10807,0.0898 -0.17383,0.0781 -0.021,0.0175 -0.0416,0.0351 -0.0625,0.0527 -0.1107,0.0582 -0.22403,0.11042 -0.33789,0.16211 -0.009,-0.006 -0.0168,-0.0132 -0.0254,-0.0195 -0.0532,0.0602 -0.0961,0.1101 -0.16407,0.18946 l -0.002,-0.002 c -0.0936,0.10925 -0.19262,0.15078 -0.27344,0.14649 -16.4271,8.72358 -28.88698,25.5571 -37.98828,51.28711 -5.581,15.767 -17.949733,27.96013 -33.927733,33.45312 L 53.988281,247.75 c -0.0077,-0.0323 -0.01552,-0.0755 -0.02344,-0.11133 -0.01475,0.002 -0.03041,0.003 -0.04687,0 l 0.002,-0.002 c 0.01255,-0.005 0.03031,-0.006 0.03711,-0.0176 7.12e-4,-10e-4 0.0031,-0.003 0.0039,-0.004 -0.0015,-0.007 -0.0024,-0.0144 -0.0039,-0.0215 l -0.0039,-0.002 c -0.02532,0.0193 -0.05085,0.0393 -0.07617,0.0586 0.0039,8.3e-4 0.0077,0.002 0.01172,0.002 -0.02383,0.0134 0.0089,0.005 -0.06641,0.0195 -0.01379,-0.002 -0.02727,-0.002 -0.04102,-0.004 -0.0077,-0.001 0.0098,-0.01 0.0039,-0.01 -0.09784,0.0389 0.05167,-0.004 -0.08008,0.0293 -0.01306,9.5e-4 -0.08162,0.002 -0.103516,-0.004 -0.04643,0.0248 -0.09605,0.0413 -0.148437,0.0312 0.0027,-0.001 0.01045,-0.007 0.0078,-0.006 -0.0102,0.004 -0.0072,0.004 -0.01172,0.006 h -0.0039 c -0.0076,0.003 -0.0078,0.004 -0.0039,0.004 -3.62e-4,2e-4 3.73e-4,8.6e-4 -0.05273,0.0156 -0.02738,0.001 -0.05332,0.003 -0.08008,-0.004 0.0031,-3e-4 0.01122,0.001 0.01172,-0.002 5.01e-4,-0.003 -0.0087,-6.4e-4 -0.01172,0 -0.0092,0.002 -0.01834,0.005 -0.02734,0.008 -0.03724,0.0108 -0.07444,0.0224 -0.113281,0.0254 -0.0012,-2.2e-4 -0.0026,2.8e-4 -0.0039,0 -0.03719,0.0236 -0.05617,0.0214 -0.09375,0.0176 -0.0026,-5e-5 -0.0035,-2.7e-4 -0.0059,-0.002 l -0.0039,-0.002 c -0.0073,0.001 -0.01429,0.004 -0.02148,0.006 -0.05459,0.0117 -0.109672,0.0144 -0.164062,0.0273 -0.0507,0.0187 -0.05961,0.0246 -0.119141,0.0371 -0.0066,0.001 -0.01469,-1.1e-4 -0.02148,0 -0.02878,2.4e-4 -0.05718,7.6e-4 -0.08594,-0.002 -0.0095,-0.001 -0.01794,7.4e-4 -0.02734,-0.002 -0.0097,0.005 -0.01945,0.009 -0.0293,0.0137 h -0.0039 c -0.0016,4e-4 -0.0023,2.9e-4 -0.0039,0.002 -0.0061,0.003 -0.01295,0.007 -0.01953,0.008 -0.02395,0.003 -0.0485,-0.002 -0.07227,0.002 -0.0166,0.003 4.11e-4,0.003 0.01562,0.004 -0.0079,10e-4 -0.01552,0.004 -0.02344,0.006 -0.0073,0.001 -0.01449,-7.3e-4 -0.02148,0.002 -0.0072,0.003 -0.0147,0.009 -0.02148,0.0117 -0.02686,0.0126 -0.05332,0.0198 -0.08203,0.0254 -0.0013,6.9e-4 -0.0027,2.6e-4 -0.0039,0.002 -9.99e-4,6e-4 -0.0029,-6e-4 -0.0039,0 -0.0032,0.002 -0.0062,0.005 -0.0098,0.006 -0.04118,0.0127 -0.05787,0.0176 -0.06055,0.0176 -0.0524,0.0167 -0.105085,0.0323 -0.15625,0.0527 -0.07706,0.0287 -0.156509,0.0524 -0.234375,0.0781 -0.03717,0.0103 -0.06004,0.0182 -0.09961,0.0273 -0.0249,0.006 -0.04386,0.007 -0.06836,0.0176 -0.01628,0.007 -0.03039,0.0194 -0.04687,0.0254 -0.02639,0.0103 -0.05488,0.0154 -0.08203,0.0234 -0.0086,-2e-4 -0.01709,0.002 -0.02539,0 -0.0043,-0.002 -0.0055,-0.01 -0.0098,-0.01 -0.0086,0.002 -0.01409,0.0106 -0.02148,0.0156 -0.03164,0.0201 -0.03523,0.0226 -0.0625,0.0312 -0.149872,0.0543 -0.301375,0.1061 -0.455078,0.14844 -0.0043,0.0201 -0.02082,0.0329 -0.04297,0.0391 h -0.0039 v 0.002 c -0.01384,0.0293 -0.05727,0.0111 -0.09375,0.01 -0.02629,0.006 -0.05322,0.003 -0.08008,0.004 -0.0096,1.4e-4 -0.01982,-2.8e-4 -0.0293,0.002 -0.03226,0.005 -0.08986,0.0195 -0.123047,0.0274 -0.121376,0.0282 -0.176011,0.041 -0.292968,0.0684 -0.01632,0.003 -0.440008,0.0926 -0.492188,0.10156 -0.332924,0.0571 -0.546483,0.0854 -0.871094,0.13281 -0.131809,0.0192 -0.205545,0.0315 -0.294922,0.0449 -0.0076,0.0119 -0.01606,0.024 -0.02344,0.0352 0.0042,9.5e-4 0.0069,2e-4 0.01172,0.002 -0.0038,0.002 -0.01258,0.005 -0.01953,0.008 -0.0014,6.8e-4 -0.0024,0.003 -0.0039,0.004 -0.0238,0.0109 -0.05302,0.0214 -0.05859,0.0215 -0.03233,0.001 -0.0634,-0.01 -0.0957,-0.008 0.0081,0.003 0.03721,0.0105 0.05273,0.0117 -0.01437,0.009 -0.02774,0.0184 -0.04297,0.0254 -0.01487,0.007 -0.02618,0.0119 -0.03906,0.0176 0.0018,0.005 0.006,0.0113 0.0078,0.0156 0.0021,0.005 -0.01604,0.0132 -0.03711,0.0195 0.0015,0.005 -0.0081,0.004 -0.01563,0.004 -0.0025,1.2e-4 -0.0061,3.2e-4 -0.0078,0.002 -0.02051,0.011 -0.03901,0.0245 -0.05859,0.0371 -0.146187,0.087 -0.291618,0.17421 -0.4375,0.26171 -0.03272,0.0197 -0.06499,0.0426 -0.09961,0.0586 -0.06326,0.0292 -0.128479,0.0507 -0.193359,0.0762 -0.04622,0.0144 -0.09219,0.0295 -0.138672,0.043 -0.37194,0.10788 -0.118725,0.031 -0.427735,0.11719 -0.06854,0.0191 -0.451062,0.1278 -0.550781,0.1582 -0.07687,0.0235 -0.153905,0.0478 -0.230469,0.0723 -0.03813,0.0195 -0.06826,0.0343 -0.152343,0.0742 -0.04713,0.0199 -0.09282,0.0418 -0.140625,0.0605 -0.01141,0.004 -0.164969,0.0499 -0.167969,0.0508 -0.0097,0.003 -0.06811,0.0176 -0.07031,0.0156 -0.03322,-0.035 -0.04704,-0.0847 -0.07031,-0.12696 0.0055,-0.006 0.01024,-0.0136 0.01563,-0.0195 -0.02681,0.0147 -0.05382,0.0294 -0.08203,0.041 -0.01692,0.007 -0.03336,0.01 -0.05078,0.0156 -0.08671,0.0281 -0.07025,0.0215 -0.146484,0.0547 -0.109649,0.0503 -0.213419,0.11647 -0.333984,0.13867 -0.05309,0.0152 -0.09961,0.0406 -0.150391,0.0625 -0.0072,0.003 -0.01438,0.0135 -0.02148,0.0117 -0.0051,-0.002 0.01195,-0.0186 0.0078,-0.0156 -0.01642,0.0104 -0.02858,0.0279 -0.04297,0.041 -0.02023,0.004 -0.04228,0.008 -0.0625,0.0117 -0.0026,0.002 -0.0044,4.6e-4 -0.0059,0.004 -9.75e-4,6.6e-4 -0.0029,0.005 -0.0039,0.006 -0.0026,4.4e-4 -0.0052,4.8e-4 -0.0078,0.002 -0.02271,0.0117 -0.04561,0.0242 -0.07031,0.0312 -0.02353,0.008 -0.051,0.0139 -0.07617,0.0215 -0.03528,0.0355 -0.05054,0.0644 -0.103516,0.0703 -0.0141,0.002 -0.02858,2.2e-4 -0.04297,-0.002 0.0026,-0.001 -0.0024,-0.01 -0.0039,-0.0117 -0.0046,0.002 -0.0091,0.01 -0.01367,0.0117 -0.0019,-3.9e-4 -0.0058,4.4e-4 -0.0078,0 -0.0086,0.004 -0.01487,0.008 -0.02344,0.0117 -0.07758,0.0367 -0.151727,0.0794 -0.232422,0.10938 -0.02593,0.009 -0.0551,0.0116 -0.08203,0.0176 -0.01032,0.003 -0.02098,0.005 -0.03125,0.008 -0.05451,0.0167 -0.107231,0.0408 -0.162109,0.0566 -0.0034,7.7e-4 -0.0067,0.001 -0.0098,-0.002 -0.003,-0.001 -0.0032,-0.01 -0.0059,-0.01 -0.01493,0.0102 -0.02625,0.0263 -0.03906,0.0391 -0.0043,0.003 -0.10122,0.0773 -0.125,0.0703 -0.04165,-0.0115 -0.0777,-0.0472 -0.115234,-0.0703 -0.01733,0.007 -0.03298,0.0174 -0.05078,0.0234 0.0275,0.0203 0.06403,0.0417 0.08398,0.0547 0.0046,0.003 0.01026,-0.005 0.01563,-0.008 -0.0043,0.001 -0.0053,0.0107 -0.0078,0.0117 -0.119785,0.0633 -0.225319,0.15388 -0.355469,0.19727 -0.0818,0.0306 -0.155393,0.0762 -0.232422,0.11719 -0.02813,0.0131 -0.05546,0.0288 -0.08398,0.041 -0.06217,0.0265 -0.138999,0.0331 -0.199219,0.0684 -0.04039,0.0168 -0.0015,-6.2e-4 -0.05078,0.0371 -0.07297,0.0567 -0.16135,0.0963 -0.25,0.12109 -0.01464,0.004 -0.02991,0.004 -0.04297,0.0117 -0.01399,0.008 -0.02319,0.0222 -0.03516,0.0332 -0.03831,0.0351 -0.0759,0.0619 -0.117188,0.0918 -0.01722,0.004 -0.03355,0.008 -0.05078,0.0117 -0.03727,0.0213 -0.07818,0.0399 -0.06836,0.0254 -0.04696,0.01 -0.0053,-0.004 -0.0625,0.0293 -0.04632,0.027 -0.09054,0.0461 -0.140626,0.0625 -0.0061,0.003 -0.01138,0.01 -0.01758,0.0117 -8e-4,3e-4 -0.0042,7.5e-4 -0.0039,0 0.0053,-0.0119 0.02658,-0.0454 0.01758,-0.0352 -0.0559,0.0592 -0.0265,0.0765 -0.121094,0.0977 -0.06566,0.0189 -0.101176,0.023 -0.154296,0.0684 -0.01364,0.003 -0.02745,0.005 -0.04102,0.008 0.007,-0.004 0.02448,-0.0226 0.01758,-0.0176 -0.0011,7.5e-4 -0.01494,0.0125 -0.02344,0.0195 -0.0014,2.4e-4 -0.0025,0.002 -0.0039,0.002 -0.02902,0.0239 -0.07232,0.0589 -0.04102,0.0293 -0.03998,-0.0151 -0.40962,-0.17849 -0.07227,0.0293 -0.0029,0.001 -0.005,0.006 -0.0078,0.008 -0.05625,0.0341 -0.05212,0.0354 -0.107422,0.0742 -0.032,0.0159 -0.06264,0.0334 -0.0957,0.0469 -0.012,0.005 -0.02433,0.01 -0.03711,0.0117 -0.02047,0.004 -0.04193,0.009 -0.0625,0.0117 -0.01378,0.002 -0.05618,0.008 -0.06836,0.0117 -0.01259,0.004 -0.02331,0.0116 -0.03516,0.0176 -0.05786,0.028 -0.116248,0.0554 -0.173829,0.084 -0.01751,0.009 -0.03198,0.0204 -0.05078,0.0254 -0.122231,0.0348 -0.134107,0.0506 -0.111328,0.0176 2e-4,-0.0135 0.0021,-0.009 -0.02148,0 -0.07482,0.0277 -0.112645,0.0568 -0.197266,0.0762 -0.02027,0.004 -0.03986,0.006 -0.06055,0.008 -0.01515,0.002 -0.03158,0.008 -0.04687,0.01 -0.0028,0.002 -0.0047,0.008 -0.0078,0.01 -0.02855,0.0164 -0.05953,0.0281 -0.08984,0.041 l -0.002,-0.004 h -0.0039 c -0.09353,0.0388 -0.04429,0.0162 -0.125,0.0332 -0.01959,0.003 -0.03888,0.0107 -0.05859,0.0117 -0.0037,0.001 0.0094,-8.6e-4 0.01172,-0.006 0.0011,-0.001 -0.0023,-0.009 -0.0039,-0.008 -0.02557,0.013 -0.02542,0.0142 -0.0293,0.0176 -0.01251,0.003 -0.04632,0.0142 -0.07422,0.0234 0.0016,-7.4e-4 0.0023,-0.005 0.0039,-0.006 -0.0023,7.7e-4 -0.0041,8.3e-4 -0.0059,0.002 v 0.004 0.002 c 2.21e-4,2.2e-4 -0.0091,0.009 -0.01367,0.0117 -0.0025,1.9e-4 -0.0036,-5.7e-4 -0.0078,0 -0.03276,0.0158 -0.06505,0.0308 -0.101562,0.0371 -0.0012,6.2e-4 -0.0028,-8.7e-4 -0.0039,0.002 -0.0053,0.002 -0.01022,0.01 -0.01562,0.0117 -0.0025,0.001 -0.01333,0.005 -0.01563,0.006 -0.0068,0.003 -0.01253,0.0107 -0.01953,0.0137 -0.0036,0.001 -0.0081,0.01 -0.01172,0.0117 -0.0013,5.5e-4 -0.003,0.009 -0.0039,0.0117 -0.0084,0.004 -0.01599,0.009 -0.02539,0.0117 -0.02129,0.009 6.15e-4,0.001 -0.01563,0.0117 -0.0038,0.002 -0.0044,0.003 -0.0059,0.004 -0.0011,-4e-5 -0.0061,0.007 -0.01172,0.0117 -0.02184,0.0112 -0.04671,0.018 -0.06641,0.0332 -0.0045,0.002 -0.0091,0.01 -0.01367,0.0117 -0.0032,0.001 -0.0065,-9.4e-4 -0.0098,0.002 -0.0074,0.002 -0.01409,0.01 -0.02148,0.0117 -0.02039,0.006 -0.04043,0.0125 -0.06055,0.0195 -0.0057,0.002 -0.009,8.6e-4 -0.01367,0.006 l -0.002,0.002 c 0.0027,0.0118 0.0051,0.0278 0.0078,0.0391 -0.953001,0.39699 -7.273327,3.49914 -10.361328,5.53515 -0.0096,-0.0371 -0.02383,-0.0992 -0.03516,-0.14843 -0.02479,0.0149 -0.05006,0.0299 -0.07422,0.041 -0.04675,0.20394 -0.128522,0.43258 -0.166016,0.10352 -0.01997,0.0103 -0.04074,0.0174 -0.06055,0.0234 -0.01166,0.0225 -0.0268,0.004 -0.15625,0.0644 -0.01809,0.009 0.07887,-0.0124 0.06055,-0.01 -0.0558,0.0243 -0.07211,0.0323 -0.08789,0.0371 0.0026,1.8e-4 0.0052,-4.1e-4 0.0078,0 0.0107,0.002 -0.01441,0.0135 -0.02148,0.0215 -0.01415,0.0161 -0.02187,0.0388 -0.04102,0.0488 -0.03784,0.0192 -0.07645,0.0387 -0.115234,0.0566 -0.0034,0.003 -0.0062,0.008 -0.0098,0.0117 h -0.002 c -0.003,0.004 -0.0057,0.0107 -0.0098,0.0137 -0.0085,0.006 -0.01782,0.009 -0.02734,0.0137 h -0.002 v 0.002 c -0.0018,0.002 -0.0049,0.006 -0.0078,0.006 -0.0089,2e-4 -0.01696,-0.002 -0.02344,-0.004 l -0.0039,0.004 c -0.0031,9.9e-4 -0.0064,-1.2e-4 -0.0098,0.002 0.0046,9.9e-4 0.0089,0.004 0.01367,0.004 -0.0012,9.6e-4 5.4e-4,0.004 -0.002,0.004 -0.02027,0.007 -0.02271,0.0117 -0.02734,0.0117 -0.0066,0.004 -0.01255,0.008 -0.01953,0.01 -0.0014,0.003 0.02885,-0.006 0.01367,0.01 -0.04135,0.0509 -0.08513,0.0977 -0.132812,0.14258 l -0.0957,0.0605 c -0.01816,0.009 -0.03722,0.0154 -0.05469,0.0254 -0.002,9.9e-4 -0.0043,0.0117 -0.002,0.0117 0.0135,0 0.01368,-0.008 0.0039,0.0117 0.06315,0.007 -0.03176,0.0239 -0.05859,0.0391 -0.0024,0.003 -0.0052,0.009 -0.0078,0.0117 -0.0035,0.003 -0.0075,0.0139 -0.01172,0.0117 -0.0012,-7.8e-4 -0.0028,-0.002 -0.0039,-0.004 -0.0338,0.0115 1.83e-4,0.0202 -0.04297,0.0293 0.0011,0.0172 -0.0027,0.0223 -0.02148,0.0352 0.005,-0.008 0.01232,-0.0228 0.01953,-0.0352 -0.02575,0.005 -0.04977,0.0125 -0.07227,0.0156 -0.04532,0.0478 -0.0874,0.10001 -0.142579,0.13476 -0.0128,0.008 -0.0293,0.004 -0.04492,0 -0.05017,0.15806 -0.122981,0.24877 -0.173829,0.12305 -7.6e-5,-0.003 4.5e-4,-0.008 0,-0.01 -0.0012,7.3e-4 -0.0027,0.008 -0.0039,0.01 l 0.002,0.002 -0.002,0.002 -0.002,0.002 -0.002,0.002 -0.002,0.002 -0.002,0.004 -0.002,0.002 c -0.0081,0.003 -0.03219,0.0157 -0.02539,0.0117 0.0062,-0.005 0.01436,-0.009 0.02148,-0.0137 -0.0109,-0.009 -0.01585,-0.0146 -0.02344,-0.0215 -0.01139,0.0256 -0.02848,0.0385 -0.04297,0.0508 v 0.004 0.002 0.002 0.004 c -0.0067,0.0305 -0.01559,0.0443 -0.04492,0.0469 -0.02238,0.0609 -0.0274,0.0724 -0.07617,0.0742 v 0.002 0.002 0.002 c -0.07471,0.0537 -0.157644,0.0994 -0.234375,0.15039 -0.02736,0.068 -0.32051,0.10058 -0.412109,0.15039 -0.06854,0.13126 -0.154669,0.0915 -0.251953,0.10156 -0.0026,3.8e-4 -0.0054,9e-5 -0.0078,0 -0.0034,0.002 0.03474,0.004 0.04883,0.0117 0.0065,0.004 -0.01478,0.009 -0.02148,0.0117 -6.6e-4,0.008 0.01016,-2.5e-4 0.01953,-0.008 -0.02593,0.0223 -0.05044,0.0463 -0.07813,0.0664 -0.05309,0.0385 -0.12644,0.0739 -0.183593,0.10938 -0.108579,0.0642 -0.213966,0.1335 -0.326172,0.19141 -0.01508,0.008 -0.05823,0.0341 -0.04687,0.0215 0.01859,-0.0206 0.0962,-0.057 0.07031,-0.0469 -0.05381,0.0211 -0.102986,0.0535 -0.154297,0.0801 -0.0072,5.4e-4 -0.01431,0.004 -0.02148,0.004 -0.02572,0.0101 -0.07858,0.0135 -0.05859,0.0117 -0.01798,0.0312 -0.03518,0.0622 -0.05469,0.0918 -0.03396,-9.6e-4 -0.06896,-0.0168 -0.101563,-0.0117 -0.0012,7.2e-4 -0.0027,0.007 -0.0039,0.008 -0.01146,0.006 -0.0049,0.0305 -0.01563,0.0391 -0.04397,0.0369 -0.156076,0.0868 -0.236328,0.11914 -0.08616,0.10514 -0.09692,0.10812 -0.148438,0.10156 -0.004,0.003 -0.0077,0.009 -0.01172,0.0117 -0.0035,0.003 -0.01282,0.0114 -0.01172,0.01 0.0011,-0.004 0.0034,-0.008 0.0059,-0.0117 -9.94e-4,-8e-5 -0.0029,9e-5 -0.0039,0 -0.0088,0.015 -0.01756,0.0318 -0.03125,0.0469 -0.02313,0.0254 -0.04964,0.0502 -0.07422,0.0742 -0.0697,0.013 -0.02829,0.006 -0.06641,0.0137 -0.02476,0.0155 -0.05317,0.0288 -0.08008,0.041 h -0.002 v 0.002 c -0.0075,0.0103 -0.01664,0.0186 -0.02734,0.0274 -0.0066,0.006 -0.01639,0.0125 -0.02539,0.0117 -0.0408,0.0298 -0.08183,0.0591 -0.125,0.0859 -0.04242,0.0203 -0.08467,0.0578 -0.123047,0.082 -0.0038,0.002 -0.008,0.004 -0.01172,0.006 0.0067,0.0149 0.01232,0.0303 0.01953,0.0449 -0.02574,0.0236 -0.04723,0.0508 -0.07617,0.0703 -0.04495,0.0303 -0.07123,0.0399 -0.115234,0.0469 -0.0088,9.9e-4 -0.01944,-0.002 -0.02734,0.002 -0.04816,0.025 -0.07983,0.0765 -0.132813,0.0937 -0.06757,0.0411 -0.08777,0.0547 -0.166015,0.0977 -0.04547,0.0252 -0.09654,0.0418 -0.138672,0.0723 -0.02132,0.0155 -0.03246,0.0443 -0.05664,0.0547 -0.01931,0.008 -0.04063,0.0129 -0.06055,0.0195 0.0024,0.003 -0.02705,0.0279 -0.04102,0.0391 -0.0032,0.003 -0.0065,0.009 -0.0098,0.0117 -0.03986,0.0425 -0.08318,0.0829 -0.123047,0.12305 -0.36727,0.195 -0.117819,0.0711 -0.164062,0.0762 -0.01468,0.007 -0.04507,0.0224 -0.06641,0.0332 -4e-4,10e-4 4.05e-4,0.007 0,0.008 l 0.002,0.002 c -0.0018,0.002 -0.0022,0.01 -0.0039,0.0117 -0.02109,0.0592 -0.04639,0.10462 -0.07227,0.084 -0.01962,0.0137 -0.04098,0.0249 -0.05859,0.041 -0.01997,0.0183 -0.03612,0.041 -0.05664,0.0586 -0.09257,0.0796 -0.202171,0.13121 -0.302734,0.19922 -0.157692,0.12479 -0.317533,0.24698 -0.5,0.33398 0.0111,-0.0141 0.03177,-0.0675 0.02148,-0.0527 -0.01662,0.0239 -0.02107,0.0552 -0.03906,0.0781 -0.03324,0.0422 -0.07422,0.0783 -0.113281,0.11524 -0.0065,0.006 -0.01454,0.0129 -0.02344,0.0137 -0.0037,3e-4 0.0026,-0.008 0.0039,-0.0117 -0.05928,0.0506 -0.04752,0.0469 -0.121093,0.084 -0.0079,0.004 -0.01959,-0.005 -0.02539,0.0117 -0.02591,0.0184 -0.04265,0.0478 -0.06836,0.0664 -0.02873,0.0394 -0.05624,0.0794 -0.0918,0.11328 -0.0916,0.0872 -0.205418,0.14753 -0.304688,0.22461 -0.06513,0.0184 -0.06849,0.0678 -0.113281,0.12305 -0.154792,0.19074 -0.348382,0.33618 -0.53125,0.49804 -0.124379,0.10206 -0.249526,0.20936 -0.386719,0.29493 -0.0052,0.0137 -0.0098,0.0178 -0.01953,0.0137 -0.0099,0.006 -0.01725,0.0159 -0.02734,0.0215 -0.06567,0.11359 -0.138523,0.20754 -0.232422,0.29883 -0.02177,0.0212 -0.04028,0.0491 -0.06836,0.0605 -0.0702,0.0287 -0.143133,0.0476 -0.216797,0.0664 1.9e-5,0.002 -0.0019,0.004 -0.002,0.006 0.0463,-0.007 0.09133,-0.0145 0.136719,-0.0254 0.0049,-0.006 0.01335,-0.0125 0.01758,-0.0176 0.0046,-0.006 -0.0047,0.0159 -0.01172,0.0176 -0.0019,4.7e-4 -0.004,-4.6e-4 -0.0059,0 -0.051,0.0628 -0.130782,0.16403 -0.167969,0.18164 -0.02775,0.061 -0.07283,0.11142 -0.140625,0.15039 -0.13501,0.0721 -0.229599,0.19578 -0.332031,0.30664 -0.137918,0.15761 -0.320768,0.26307 -0.486328,0.38868 -0.146184,0.10835 -0.2754,0.2355 -0.425782,0.33789 -0.0662,0.10872 -0.05299,0.10089 -0.166015,0.20507 -0.01222,0.0113 -0.02902,0.0164 -0.04297,0.0254 -0.07167,0.0464 -0.132151,0.1027 -0.193359,0.1621 -0.0048,0.005 -0.0071,0.011 -0.01172,0.0156 -0.0011,0.0521 -0.0495,0.13657 -0.05859,0.15625 -0.03189,0.0705 -0.08478,0.1301 -0.125,0.19531 -0.03322,0.0539 -0.05397,0.11298 -0.07617,0.17188 -0.0074,0.0211 -0.01142,0.0425 -0.02148,0.0625 -0.08058,0.15983 -0.04216,0.0679 -0.121094,0.18164 -0.0038,0.005 -0.02886,0.0457 -0.04492,0.0703 -6.55e-4,0.007 -0.0011,0.0144 -0.002,0.0215 -0.0065,0.0104 -0.0129,0.0191 -0.01953,0.0293 0.0019,0.0253 -0.0032,0.0484 -0.0078,0.0898 -0.0163,0.0316 -0.03106,0.0634 -0.04883,0.0938 -0.0015,0.003 -0.0087,0.007 -0.0098,0.004 -0.004,-0.0103 0.0016,-0.0436 -0.002,-0.0332 -0.03773,0.1098 0.02375,0.0326 -0.0293,0.11719 -1.28e-4,9.9e-4 1.55e-4,0.007 0,0.008 -0.0053,0.0446 -0.02657,0.0877 -0.04883,0.13476 -0.05117,-0.0456 0.01183,0.003 -0.01172,0.0645 -0.01284,0.0335 -0.03675,0.0623 -0.05859,0.0918 0.0024,-0.003 0.0036,0.008 0.0039,0.0117 -0.0032,0.003 -0.0089,0.009 -0.01367,0.0137 h -0.002 c 0.0041,-0.009 0.0054,-0.0183 0.01172,-0.0254 -0.0071,0.01 -0.01309,0.0195 -0.01953,0.0293 0.002,7.7e-4 0.0024,0.003 0.0039,0.004 -0.0041,0.004 -0.008,0.009 -0.01172,0.0117 -0.05386,-0.012 -0.04711,0.0876 -0.04883,0.20507 -2.33e-4,0.0163 0.01537,-0.0118 0.0293,-0.0332 -0.0092,0.0249 -0.01814,0.0513 -0.02734,0.0762 -0.01775,0.0371 -0.03331,0.077 -0.05273,0.11328 -0.0066,0.0124 -0.01554,0.0198 -0.02344,0.0312 -0.03865,0.0564 -0.07211,0.11498 -0.103515,0.17579 -0.02855,-0.0178 0.0195,0.0128 -0.0078,0.0664 -0.01172,0.0228 -0.02671,0.0426 -0.04297,0.0625 0.0014,0.004 0.0013,0.0229 -0.01367,0.0879 -0.0088,0.038 -0.02222,0.0773 -0.03711,0.11328 -0.007,0.0169 -0.01103,0.0465 -0.0293,0.0469 -0.02604,5e-4 -0.01924,-0.0564 -0.04102,-0.0664 -0.123008,-0.0705 -0.03138,-0.0268 0.02539,0.0918 0.0084,0.005 0.01418,0.009 0.02344,0.0137 -0.002,0.009 -0.0063,0.0197 -0.0078,0.0293 0.0048,0.0142 0.0086,0.0293 0.01172,0.0449 0.0075,0.0373 -0.02776,0.07 -0.04883,0.10156 -0.02917,0.0438 -0.06323,0.0851 -0.09961,0.12305 -0.171515,0.17929 -0.149462,0.15169 -0.328125,0.27148 -0.0086,0.005 -0.01687,0.0107 -0.02539,0.0156 0.019,0.004 0.003,0.0107 -0.02344,0.0176 -0.0044,0.004 -0.0092,0.008 -0.01367,0.0117 0.0045,0.0163 0.01149,0.0479 0.01563,0.0625 -9.6906861,11.19561 -14.9990003,25.34447 -15.0000004,40.31446 -10e-4,16.49701 6.4238546,32.00685 18.0898434,43.67383 l 41.640625,41.625 c 12.039999,12.04001 27.853901,18.06052 43.669926,18.06054 15.81602,0 31.63187,-6.02053 43.67187,-18.06054 3.624,-3.624 6.77877,-7.67765 9.38477,-12.05664 7.8,-10.34601 13.8672,-24.79603 18.0332,-42.95704 2.447,-10.63799 10.01709,-19.42113 20.24609,-23.49414 11.774,-4.68701 28.09202,-12.72874 35.33204,-19.96875 6.62997,-6.62999 9.54106,-13.40251 9.16406,-21.3125 -0.334,-6.983 -3.65386,-12.99406 -8.88086,-16.08007 -4.465,-2.638 -9.8464,-2.76617 -14.81641,-0.32618 -0.79699,0.398 -1.46567,0.72185 -2.01367,0.96485 -10.775,4.909 -18.07617,5.56154 -21.70117,1.93554 -4.817,-4.81701 1.37503,-13.39692 2.37305,-14.71093 L 348.66016,90.240234 354.27539,84.625 c 4.429,-4.428 11.6345,-4.427 16.0625,0 1.627,1.628 3.91027,2.416578 6.19727,2.142578 2.286,-0.275 4.32062,-1.582781 5.51562,-3.550781 l 35.14649,-57.859375 c 3.039,-4.999 2.31045,-11.148734 -1.81055,-15.302734 -2.57563,-2.5956421 -5.94108,-3.8736626 -9.33008,-3.7343755 z M 177.28125,166.37695 c -2.3e-4,-0.003 -0.002,-0.005 -0.002,-0.008 -0.003,-0.0466 0.0534,-0.11407 0.0137,-0.13867 -0.18826,-0.11686 -0.0305,0.119 -0.0117,0.14648 z M 399.16992,26.142578 373.31445,68.701172 c -9.148,-4.192 -20.2172,-2.875547 -28.1582,3.939453 l -6.26953,-6.271484 1.64648,-5.234375 z m -68.89258,52.832031 4.25782,4.257813 -163.88672,167.884768 -8.89453,-8.89453 z M 161.67383,152.38086 c -0.015,-0.0168 -0.0131,0.0541 0.006,0.0684 0.0199,0.0161 0.0397,0.0286 0.0586,0.041 0.006,0.001 0.008,2.8e-4 0.0137,0.002 -0.0233,-0.0392 -0.0476,-0.0782 -0.0781,-0.11133 z m -0.75977,0.0508 c -0.0113,0.006 -0.0237,0.0111 -0.0352,0.0176 0.007,-0.002 0.0112,6.5e-4 0.0215,-0.004 0.006,-0.002 0.0197,-0.0167 0.0137,-0.0137 z m -1.06054,0.01 c -0.025,0.0236 -0.0419,0.044 -0.0586,0.0625 0.006,-0.003 0.0114,-0.004 0.0176,-0.008 0.0199,-0.0113 0.0577,-0.0704 0.041,-0.0547 z m 0.93164,0.01 c -0.005,0 0.0106,0.002 0.0156,0.004 0.008,4.6e-4 0.01,-4.2e-4 0.0156,0 -0.0104,-0.002 -0.0208,-0.003 -0.0312,-0.004 z m 0.99609,0.0508 c -0.005,-0.009 0.0148,0.0268 0.0117,0.0215 h 0.002 c -0.005,-0.008 -0.01,-0.0147 -0.0137,-0.0215 z m 0.0684,0.10547 c -0.003,1.1e-4 -0.007,0.002 -0.01,0.002 0.01,0.0172 -0.003,-0.007 0.01,0.0156 0.003,9.9e-4 0.008,4e-4 0.0117,0.002 -0.004,-0.005 -0.007,-0.0129 -0.0117,-0.0195 z m -7.74609,0.16211 c 6e-5,0.003 -7e-5,0.007 0,0.01 0.0105,0.006 0.0199,0.01 0.0312,0.0156 0.003,-7.1e-4 0.005,-4.5e-4 0.008,-0.002 -0.0126,-0.009 -0.0261,-0.0155 -0.0391,-0.0234 z m 2.54882,0.0586 c -0.008,0.007 -0.0161,0.0141 -0.0234,0.0215 0.004,-0.002 0.008,-0.003 0.0117,-0.006 0.005,-0.004 0.009,-0.0108 0.0117,-0.0156 z m -9.47851,2.42188 c -0.003,0.002 -0.005,0.004 -0.008,0.006 0.004,10e-4 0.009,0.002 0.0137,0.004 0.001,-7.9e-4 0.003,-5.6e-4 0.004,-0.002 -0.003,-0.002 -0.006,-0.005 -0.01,-0.008 z m 0.0117,0.01 -0.002,0.002 c 0.004,0.001 0.008,0.002 0.0117,0.004 -0.003,-0.002 -0.007,-0.004 -0.01,-0.006 z m 23.88281,1.79687 c 10e-4,0.002 0.002,0.004 0.004,0.006 0.002,0.001 0.008,9.9e-4 0.006,0 -0.003,-0.002 -0.006,-0.004 -0.01,-0.006 z m 6.08203,3.41602 c 0.003,0.006 0.005,0.0119 0.008,0.0176 0.005,0.004 0.0191,0.0142 0.0234,0.0176 -0.002,-0.004 -0.004,-0.006 -0.006,-0.01 -0.007,-0.006 -0.0177,-0.0181 -0.0254,-0.0254 z m 0.36328,0.72461 c -8e-5,0.001 9e-5,0.002 0,0.004 0.006,0.009 0.0112,0.0199 0.0176,0.0293 2.3e-4,-0.002 -1.8e-4,-0.008 0,-0.0117 v -0.002 l -0.006,-0.006 h -0.002 c -0.004,-3.8e-4 -0.004,-0.004 -0.004,-0.008 v -0.002 c -0.002,-0.002 -0.004,-0.002 -0.006,-0.004 z m 0.25781,0.40429 c 0.007,0.011 0.0144,0.0221 0.0215,0.0332 l 0.0137,0.0137 c -0.003,-0.01 -0.007,-0.0193 -0.01,-0.0293 -0.0126,-0.009 -0.0205,-0.0148 -0.0254,-0.0176 z m 0.38086,0.51953 c -7.6e-4,-0.0172 -0.002,-0.0511 0.002,0.0332 7.9e-4,0.001 0.003,0.004 0.004,0.006 -0.001,-0.0155 -0.003,-0.0269 -0.004,-0.0391 z m 1.29883,1.92579 c 0.008,0.0146 0.019,0.0244 0.0293,0.0352 -0.001,-0.006 -0.004,-0.0167 -0.006,-0.0234 -0.003,-0.002 -0.005,-0.006 -0.008,-0.008 -0.005,-0.002 -0.0105,-0.002 -0.0156,-0.004 z m -1.9082,0.7539 c -0.005,0.005 -0.005,0.009 -0.01,0.0137 0.0224,0.0245 0.0441,0.0508 0.0664,0.0762 -0.0187,-0.03 -0.0345,-0.0619 -0.0566,-0.0898 z m -0.5957,0.58594 c 0.008,0.0331 0.004,0.0731 0.0254,0.0996 0.038,0.0465 0.0886,0.0813 0.13867,0.11523 -0.0566,-0.0696 -0.1063,-0.1464 -0.16406,-0.21484 z m 0.70312,0.33008 c 0.006,0.0143 0.0117,0.0286 0.0176,0.043 0.01,-0.009 0.0174,-0.0168 0.0273,-0.0254 -0.0246,-0.008 -0.0237,-0.01 -0.0449,-0.0176 z m -18.28906,1.88867 c 0.305,0.042 0.43044,0.0794 0.77344,0.19141 1.163,0.381 1.78942,1.41664 2.10742,1.93164 0.063,0.101 0.14256,0.23825 0.22656,0.40625 0.81,1.613 0.65908,3.54907 -0.29492,5.08007 -0.145,0.233 -0.29159,0.46236 -0.43945,0.69336 -4.992,6.509 -7.48886,11.97828 -8.13086,13.48828 -0.611,1.245 -1.85543,4.2494 -1.98243,8.2754 -0.14,4.429 1.04366,11.05537 7.47266,17.48437 1.53,1.529 3.24237,2.79459 5.10937,3.80859 l -18.23437,17.66602 c -0.759,0.735 -1.40945,1.59236 -1.81445,2.56836 -1.218,2.931 -0.49353,6.14223 1.60547,8.24023 l 19.65039,19.65039 c 1.407,1.407 3.31568,2.19727 5.30468,2.19727 h 0.0449 c 1.991,0 3.89806,-0.80352 5.28906,-2.22852 l 2.125,-2.17773 c 0.99,2.47 2.53237,4.87605 4.77929,7.12305 8.50605,8.507 21.46904,8.87962 38.45704,1.14062 0.632,-0.28 1.52139,-0.70208 2.52539,-1.20508 0.329,-0.161 0.52986,-0.19789 0.50586,-0.21289 0.41,0.174 1.43582,1.54253 1.54882,3.89453 0.123,2.578 -0.3711,5.57222 -4.78711,9.98829 -4.417,4.41698 -17.14843,11.41367 -30.27343,16.63867 -14.806,5.896 -25.76541,18.63126 -29.31641,34.07226 -3.656,15.939 -9.00461,28.86544 -15.47461,37.39844 -0.236,0.292 -0.45062,0.60178 -0.64062,0.92578 -2.005,3.433 -4.45802,6.61136 -7.29102,9.44336 -18.231,18.231 -47.896905,18.231 -66.128905,0 L 31.019531,343.02734 c -8.917,-8.917 -14.25139,-20.94173 -14.27539,-33.55273 -0.023,-12.524 4.843265,-24.3013 13.697265,-33.1543 3.678,-3.679 7.926907,-6.70604 12.628906,-8.99804 0.029,-0.014 0.05794,-0.028 0.08594,-0.043 3.365,-1.615 14.496094,-4.91211 14.496094,-4.91211 l 22.320312,-7.65625 c 20.335004,-6.99 36.079264,-22.52972 43.197264,-42.63672 8.01,-22.645 18.50177,-36.95091 32.00977,-43.62891 0.188,-0.093 0.37545,-0.18343 0.56445,-0.27343 1.125,-0.535 2.38319,-0.73741 3.61719,-0.56641 z m 22.18359,0.15039 c 0.0128,0.015 0.0236,0.0399 0.0176,0.0293 -0.006,-0.01 -0.0116,-0.0195 -0.0176,-0.0293 z m -3.29101,2.21484 c -0.0112,0.0373 -0.0168,0.0734 0.004,0.0977 0.0182,0.0215 0.005,-0.0564 0,-0.084 -9.1e-4,-0.005 -0.003,-0.009 -0.004,-0.0137 z M 53.865234,247.51562 c -0.01694,0.004 -0.03389,0.008 -0.05078,0.0117 -0.0014,3.3e-4 -0.0025,0.002 -0.0039,0.002 0.0053,5.8e-4 0.01038,2.5e-4 0.01563,0.002 0.0059,7.4e-4 0.01195,2.5e-4 0.01758,0.002 0.0038,-0.005 -0.0015,-0.007 -0.0078,-0.006 0.0099,-0.004 0.01879,-0.008 0.02734,-0.01 z m -0.02539,0.0703 c -0.002,0.001 -0.0039,0.003 -0.0059,0.004 3e-4,0.003 -7.5e-5,0.008 0,0.0117 0.0019,-0.005 0.0045,-0.0104 0.0059,-0.0156 z m 0.07422,0.0723 c 0.0029,-0.001 -0.0052,0.007 -0.0078,0.008 -0.0031,0.002 -0.0064,0.002 -0.0098,0.002 0.0047,-0.003 0.0078,-0.005 0.01758,-0.01 z m -2.097656,0.25 c -0.0058,0.001 -0.01174,0.003 -0.01758,0.004 0.0011,0.004 9.7e-5,0.009 0.002,0.0137 -0.0093,0.006 -0.01729,0.0126 -0.02734,0.0176 -0.0202,0.01 -0.04154,0.0174 -0.0625,0.0254 -0.04106,0.0157 -0.08109,0.0337 -0.123047,0.0469 -0.01039,0.003 -0.02085,0.007 -0.03125,0.01 0.01231,-7.4e-4 0.02202,-0.002 0.04687,-0.002 0.01786,-0.006 0.0317,-0.0223 0.04883,-0.0293 0.05594,-0.0237 0.115029,-0.036 0.173828,-0.0508 -0.0025,-0.009 -0.007,-0.0188 -0.0098,-0.0352 z m -0.353515,0.14453 c -0.02591,0.008 -0.05212,0.0142 -0.07813,0.0215 -0.0034,9.4e-4 -0.0064,0.003 -0.0098,0.004 7.59e-4,0.003 0.0013,0.007 0.002,0.01 0.01746,-0.006 0.03533,-0.0113 0.05273,-0.0176 0.0056,-0.01 0.01974,-0.004 0.02734,-0.01 0.0011,-0.001 1.9e-5,-0.003 0,-0.004 0.0018,-10e-4 0.0041,-0.002 0.0059,-0.004 z m -7.664063,2.4375 c -0.0096,0.005 -0.01964,0.009 -0.0293,0.0137 0.01165,0.0155 0.02457,0.0272 0.04297,0.0234 0.02133,-0.004 0.0076,-0.0195 -0.01367,-0.0371 z m -0.863281,0.17969 c -0.0094,0.003 -0.01686,0.01 -0.02344,0.0176 0.0089,-0.003 0.01837,-0.005 0.02734,-0.008 -5.37e-4,-0.006 -3.14e-4,-0.01 -0.0039,-0.01 z m -0.07227,0.0137 c -0.02086,0.0168 -0.02661,0.0245 -0.03516,0.0332 0.0033,-0.001 0.0064,-0.003 0.0098,-0.004 0.01398,-0.0143 0.03531,-0.0373 0.02539,-0.0293 z m -0.648437,0.48829 c -0.01194,0.005 -0.02375,0.006 -0.04102,0.0137 -0.0058,0.007 0.0091,0.002 0.04102,-0.0137 z m -1.6875,0.87695 c -0.0034,0.003 -0.0066,0.006 -0.0098,0.01 0.0016,-4.6e-4 0.0046,9e-4 0.0059,-0.002 0.0026,-10e-4 0.006,-0.01 0.0039,-0.008 z m -14.240235,6.18164 c -0.0013,4.6e-4 0.0018,0.005 0.0039,0.008 0.0017,-7e-4 0.0063,-0.003 0.0078,-0.004 -0.0042,-0.002 -0.01058,-0.004 -0.01172,-0.004 z m 1.486329,0.45898 c -0.0027,-7.4e-4 -0.007,-0.001 -0.01172,0.004 -0.03381,0.0286 -0.0588,0.0537 -0.08008,0.0781 0.01098,-0.009 0.02271,-0.0173 0.0332,-0.0273 0.0154,-0.0147 0.03098,-0.0285 0.05078,-0.0352 0.01793,-0.006 0.0085,0.006 -0.01367,0.0254 0.0082,-0.002 0.01689,-0.005 0.02539,-0.008 0.0024,-0.0195 0.0026,-0.0353 -0.0039,-0.0371 z m 0.128906,0 c -0.0089,0.004 -0.01906,0.008 -0.0293,0.0117 -0.0061,0.0225 -0.01435,0.0437 -0.02148,0.0664 0.02774,-0.0173 0.04272,-0.0441 0.05078,-0.0781 z m -0.125,0.041 c -0.01093,0.003 -0.02093,0.007 -0.0332,0.01 -0.02324,0.0194 -0.05623,0.0438 -0.08984,0.0664 9.15e-4,0.01 0.001,0.0252 -0.002,0.0371 0.0037,0.0215 0.0075,0.0422 0.01172,0.0586 0.03031,-0.0179 0.0637,-0.0325 0.08008,-0.0625 0.01297,-0.0237 0.02802,-0.0729 0.0332,-0.10937 z m -0.123047,0.0762 c -0.0032,0.002 -0.0047,0.004 -0.0078,0.006 3.31e-4,0.002 0.0016,0.004 0.002,0.006 0.0024,-0.004 0.0032,-0.008 0.0059,-0.0117 z m 0.150391,-0.043 c -0.01001,6e-4 0.0234,0.004 0.0293,0.0117 0.0042,-0.002 0.008,-0.004 0.01172,-0.006 -0.01372,-0.004 -0.02783,-0.007 -0.04102,-0.006 z m -0.160157,0.0508 c -0.01287,0.008 -0.02143,0.0107 -0.0332,0.0176 -0.0051,0.0102 -0.0027,0.0196 0.0039,0.0293 0.009,-0.0154 0.01786,-0.0291 0.0293,-0.0469 z m -0.0293,0.0469 c -0.02374,0.0407 -0.04351,0.0734 -0.05469,0.0996 0.01231,-0.004 0.02327,-0.0115 0.0332,-0.0195 0.0043,-0.0194 0.01083,-0.0453 0.02539,-0.0762 -8.11e-4,-10e-4 -0.0032,-0.003 -0.0039,-0.004 z m -0.27539,0.20703 0.117187,0.006 c 0.0055,-0.002 0.02032,-0.009 0.01563,-0.006 -0.02704,3.5e-4 -0.06461,-10e-4 -0.132812,0 z m -1.40625,0.77148 c -0.02038,0.007 -0.04693,0.0152 -0.07617,0.0254 l -0.002,0.002 c -0.0059,0.002 -0.0093,0.002 -0.01563,0.004 -0.0015,0.003 -0.0025,0.005 -0.0039,0.008 v 0.002 c -0.0066,0.0114 -0.01494,0.0218 -0.02148,0.0332 0.01945,-0.002 0.03897,-0.003 0.05859,-0.004 0.0045,-0.002 0.0095,-0.003 0.01172,-0.006 0.01633,-0.0208 0.03362,-0.0426 0.04883,-0.0645 z m -1.9375,1.25196 c -0.0074,0.005 -0.0028,0.003 -0.01367,0.01 -0.0021,0.002 0.0054,3.5e-4 0.0078,-0.002 0.0013,-0.002 0.0042,-0.006 0.0059,-0.008 z m -3.652344,2.37304 c -0.0023,0.001 -0.0033,-0.001 -0.0078,0.004 5.99e-4,10e-4 0.0013,0.003 0.002,0.004 0.0018,-0.003 0.004,-0.005 0.0059,-0.008 z m -0.191406,0.70899 c -0.0059,10e-4 -0.01178,0.002 -0.01758,0.004 l -0.002,0.002 c -0.01098,0.003 -0.02225,0.005 -0.0332,0.008 0.01037,-10e-4 0.02119,-0.002 0.02734,-0.004 0.0029,-8e-4 0.0048,4.1e-4 0.0059,-0.002 0.0058,-0.001 0.0117,3e-4 0.01758,-0.002 9.49e-4,-0.002 -2.99e-4,-0.004 0.002,-0.006 z m -2.335938,2.73633 c -0.0064,0.0104 -0.01358,0.0206 -0.01953,0.0312 -0.0046,0.008 0.01899,-0.0125 0.01953,-0.0215 1.95e-4,-0.003 -5e-5,-0.006 0,-0.01 z m -0.195312,0.53711 c -0.0048,0.007 -0.0097,0.0135 -0.01367,0.0215 0.0018,-10e-4 0.0064,-0.005 0.0098,-0.008 0.0036,8e-4 -2.59e-4,-0.0157 0.0039,-0.0137 z m -0.28711,0.71093 c -0.02102,0.0253 -0.04493,0.0486 -0.0625,0.0762 -0.0053,0.008 0.01889,-0.008 0.02539,-0.0156 0.01426,-0.0166 0.02455,-0.0356 0.03516,-0.0547 10e-4,-0.002 0.0018,-0.004 0.002,-0.006 z m -0.572265,0.86914 c -0.0062,0.004 -0.01333,0.006 -0.01953,0.01 l -0.002,0.002 c -0.0015,0.003 3.73e-4,0.003 -0.002,0.006 0.0027,-6.4e-4 0.0053,0 0.0078,-0.002 0.0054,-0.005 0.01027,-0.0105 0.01563,-0.0156 z"
   style="fill:#ffffff;fill-opacity:1" /><path
   d="m 85.132,303.857 c -2.929,-2.929 -7.678,-2.929 -10.606,0 -2.929,2.929 -2.929,7.678 0,10.606 l 23.861,23.861 c 1.464,1.464 3.384,2.197 5.303,2.197 1.919,0 3.839,-0.732 5.303,-2.197 2.929,-2.929 2.929,-7.678 0,-10.606 z"
   id="path56"
   style="fill:#ffffff;fill-opacity:1" /><path
   d="m 111.449,283.154 c -2.929,-2.929 -7.678,-2.929 -10.606,0 -2.929,2.929 -2.929,7.678 0,10.606 l 18.247,18.247 c 1.464,1.464 3.384,2.197 5.303,2.197 1.919,0 3.839,-0.732 5.303,-2.197 2.929,-2.929 2.929,-7.678 0,-10.606 z"
   id="path58"
   style="fill:#ffffff;fill-opacity:1" /><path
   id="path60"
   d="m 134.56445,252.53906 c -1.91937,0 -3.83873,0.73082 -5.30273,2.19532 -2.929,2.92899 -2.929,7.67942 0,10.60742 l 18.24805,18.24609 c 1.464,1.464 3.38373,2.19727 5.30273,2.19727 1.919,0 3.83873,-0.73227 5.30273,-2.19727 2.929,-2.929 2.929,-7.67747 0,-10.60547 l -18.24804,-18.24804 c -1.4645,-1.4645 -3.38336,-2.19532 -5.30274,-2.19532 z"
   style="fill:#ffffff;fill-opacity:1" />
<g
   id="g64">
</g>
<g
   id="g66">
</g>
<g
   id="g68">
</g>
<g
   id="g70">
</g>
<g
   id="g72">
</g>
<g
   id="g74">
</g>
<g
   id="g76">
</g>
<g
   id="g78">
</g>
<g
   id="g80">
</g>
<g
   id="g82">
</g>
<g
   id="g84">
</g>
<g
   id="g86">
</g>
<g
   id="g88">
</g>
<g
   id="g90">
</g>
<g
   id="g92">
</g>
</svg>
